Format : Matroska
File size : 2.18 GiB
Duration : 46mn 24s
Overall bit rate : 6 736 Kbps
Encoded date : UTC 2011-03-07 23:38:15
Writing application : mkvmerge v4.5.0 ('Speed of Light') built on Feb 1 2011 02:10:32
Writing library : libebml v1.2.0 + libmatroska v1.1.0

Video
ID : 1
Format : AVC
Format/Info : Advanced Video Codec
Format profile : High@L4.1
Format settings, CABAC : Yes
Format settings, ReFrames : 5 frames
Codec ID : V_MPEG4/ISO/AVC
Duration : 46mn 24s
Bit rate : 5 228 Kbps
Width : 1 280 pixels
Height : 688 pixels
Display aspect ratio : 1.860
Frame rate : 23.976 fps
Color space : YUV
Chroma subsampling : 4:2:0
Bit depth : 8 bits
Scan type : Progressive
Bits/(Pixel*Frame) : 0.248
Stream size : 1.65 GiB (76%)
Writing library : x264 core 114 r1913 5fd3dce
Language : English

Audio
ID : 2
Format : DTS
Format/Info : Digital Theater Systems
Codec ID : A_DTS
Duration : 46mn 24s
Bit rate mode : Constant
Bit rate : 1 510 Kbps
Channel(s) : 6 channels
Channel positions : Front: L C R, Side: L R, LFE
Sampling rate : 48.0 KHz
Bit depth : 24 bits
Stream size : 501 MiB (22%)